<?xml version="1.0" encoding="utf-8"?><!-- Uploaded to: SVG Repo, www.svgrepo.com, Generator: SVG Repo Mixer Tools -->
<svg width="800px" height="800px" viewBox="0 0 24 24" fill="none" xmlns="http://www.w3.org/2000/svg">
<path d="M21 7C21 5.34315 19.6569 4 18 4H6C4.34315 4 3 5.34315 3 7V8.4C3 9.28366 3.71634 10 4.6 10V10C4.82091 10 5 10.1791 5 10.4V18C5 19.1046 5.89543 20 7 20H17C18.1046 20 19 19.1046 19 18V10.4C19 10.1791 19.1791 10 19.4 10V10C20.2837 10 21 9.28366 21 8.4V7Z" stroke="#000000" stroke-width="2" stroke-linecap="round" stroke-linejoin="round"/>
</svg>