<?xml version="1.0" encoding="iso-8859-1"?>
<!-- Uploaded to: SVG Repo, www.svgrepo.com, Generator: SVG Repo Mixer Tools -->
<svg fill="#000000" height="800px" width="800px" version="1.1" id="Layer_1" xmlns="http://www.w3.org/2000/svg" xmlns:xlink="http://www.w3.org/1999/xlink" 
	 viewBox="0 0 512.001 512.001" xml:space="preserve">
<g>
	<g>
		<g>
			<path d="M400.29,123.391c-25.264-16.367-55.873-27.933-89.196-33.992V55.094C311.094,24.715,286.379,0,256.001,0
				c-30.379,0-55.094,24.715-55.094,55.094v34.305c-33.324,6.06-63.932,17.625-89.196,33.993
				c-40.183,26.034-62.312,61.139-62.312,98.849v152.025c0,37.711,22.129,72.815,62.312,98.85
				c38.703,25.075,89.946,38.885,144.29,38.885c54.344,0,105.585-13.81,144.29-38.885c40.182-26.034,62.312-61.139,62.312-98.85
				V222.24C462.603,184.531,440.473,149.425,400.29,123.391z M222.944,55.094c0-18.227,14.829-33.056,33.056-33.056
				c18.227,0,33.056,14.829,33.056,33.056v31.152c-10.834-1.147-21.878-1.741-33.056-1.741c-11.179,0-22.223,0.594-33.056,1.741
				V55.094z M123.692,141.887c35.177-22.791,82.165-35.343,132.307-35.343c50.142,0,97.128,12.553,132.307,35.343
				c33.699,21.833,52.258,50.37,52.258,80.354s-18.559,58.521-52.258,80.354c-35.179,22.791-82.165,35.343-132.307,35.343
				c-50.142,0-97.13-12.553-132.307-35.343c-33.699-21.833-52.258-50.37-52.258-80.354S89.994,163.719,123.692,141.887z
				 M440.565,374.265c0,29.984-18.559,58.521-52.258,80.354c-35.179,22.791-82.165,35.343-132.307,35.343
				s-97.13-12.553-132.307-35.343c-33.699-21.833-52.258-50.37-52.258-80.354v-89.652c10.153,13.403,23.666,25.717,40.275,36.477
				c38.703,25.075,89.946,38.885,144.29,38.885c54.344,0,105.585-13.81,144.29-38.885c16.609-10.761,30.122-23.073,40.275-36.477
				V374.265z"/>
			<path d="M407.509,363.246c-6.085,0-11.019,4.934-11.019,11.019c0,20.342-22.482,37.102-32.148,43.363
				c-16.866,10.927-38.45,19.18-62.416,23.868c-5.972,1.169-9.866,6.956-8.699,12.929c1.029,5.257,5.638,8.905,10.803,8.905
				c0.702,0,1.413-0.068,2.128-0.207c26.698-5.222,50.963-14.559,70.168-27.002c15.761-10.211,42.203-31.826,42.203-61.859
				C418.528,368.181,413.593,363.246,407.509,363.246z"/>
			<path d="M257.104,445.885c-0.011,0-0.023,0-0.033,0l-1.07,0.002c-6.086,0-11.019,4.934-11.019,11.019s4.933,11.019,11.019,11.019
				l1.134-0.002c6.085-0.019,11.004-4.966,10.987-11.051C268.102,450.797,263.173,445.885,257.104,445.885z"/>
			<path d="M135.678,284.103C166.864,304.31,210.72,315.9,256.001,315.9s89.138-11.591,120.327-31.8
				c15.658-10.158,35.453-27.102,40.841-50.139c0.002-0.011,0.003-0.023,0.005-0.034l0.001,0.001
				c0.896-3.885,1.351-7.818,1.351-11.687c0-30.015-26.441-51.641-42.204-61.863c-31.186-20.207-75.042-31.797-120.323-31.797
				s-89.136,11.591-120.325,31.799c-15.761,10.219-42.202,31.845-42.202,61.861c0,3.868,0.455,7.799,1.351,11.687l0.001-0.001
				c0.002,0.011,0.003,0.023,0.005,0.034C100.22,256.998,120.016,273.941,135.678,284.103z M364.338,265.608
				c-27.71,17.956-67.198,28.255-108.338,28.255s-80.628-10.299-108.333-28.252c-7.151-4.639-18.052-12.786-25.145-23.141H389.48
				C382.387,252.824,371.486,260.971,364.338,265.608z M147.662,178.873c27.711-17.956,67.199-28.255,108.339-28.255
				c41.14,0,80.628,10.299,108.336,28.253c11.637,7.546,30.915,22.793,32.097,41.562H115.567
				C116.75,201.665,136.027,186.417,147.662,178.873z"/>
		</g>
	</g>
</g>
</svg>