<?xml version="1.0" ?>
<!-- Uploaded to: SVG Repo, www.svgrepo.com, Generator: SVG Repo Mixer Tools -->
<svg width="800px" height="800px" viewBox="0 0 24 24" version="1.1" xml:space="preserve" xmlns="http://www.w3.org/2000/svg" xmlns:xlink="http://www.w3.org/1999/xlink">
<style type="text/css">
	.st0{opacity:0.2;fill:none;stroke:#000000;stroke-width:5.000000e-02;stroke-miterlimit:10;}
</style>
<g id="Layer_Grid"/>
<g id="Layer_2">
<path d="M17,13V8.9c1.7-0.2,3-1.7,3-3.4C20,3.6,18.4,2,16.5,2c-1.8,0-3.2,1.3-3.4,3h-2.3L9.9,2.7C9.8,2.3,9.4,2,9,2H5   C4.4,2,4,2.4,4,3s0.4,1,1,1h3.3l0.3,1H8C7.4,5,7,5.4,7,6v7c0,2.4,1.7,4.4,4,4.9V20h-1c-0.6,0-1,0.4-1,1s0.4,1,1,1h4   c0.6,0,1-0.4,1-1s-0.4-1-1-1h-1v-2.1C15.3,17.4,17,15.4,17,13z M16.5,4C17.3,4,18,4.7,18,5.5c0,0.7-0.4,1.2-1,1.4V6   c0-0.6-0.4-1-1-1h-0.9C15.3,4.4,15.8,4,16.5,4z M12,16c-1.7,0-3-1.3-3-3V7h5h1v1v5C15,14.7,13.7,16,12,16z"/>
</g>
</svg>