<?xml version="1.0" encoding="iso-8859-1"?>
<!-- Uploaded to: SVG Repo, www.svgrepo.com, Generator: SVG Repo Mixer Tools -->
<svg fill="#000000" height="800px" width="800px" version="1.1" id="Layer_1" xmlns="http://www.w3.org/2000/svg" xmlns:xlink="http://www.w3.org/1999/xlink" 
	 viewBox="0 0 512 512" xml:space="preserve">
<g transform="translate(1 1)">
	<g>
		<g>
			<path d="M104.003,163.881c18.224,0,33.844-11.281,39.919-26.902c0-1.736,0.868-2.603,0.868-4.339l5.589-25.548l6.561-6.56
				c3.471-3.471,3.471-8.678,0-12.149c-3.471-3.471-8.678-3.471-12.149,0l-6.561,6.561l-25.548,5.589
				c-7.426,1.563-15.552,3.835-22.563,7.362v-39.47c0-5.207-3.471-8.678-8.678-8.678s-8.678,3.471-8.678,8.678v39.47
				c-7.011-3.526-15.137-5.798-22.563-7.362l-25.548-5.589l-6.56-6.561c-3.471-3.471-8.678-3.471-12.149,0s-3.471,8.678,0,12.149
				l6.653,6.653l6.364,25.455c0,1.736,0,2.603,0.868,4.339c5.207,15.62,20.827,26.902,39.051,26.902h13.885v30.792
				c-7.011-3.526-15.137-5.798-22.563-7.362l-25.548-5.589l-6.56-6.561c-3.471-3.471-8.678-3.471-12.149,0s-3.471,8.678,0,12.149
				l6.653,6.653l6.364,25.455c0,1.736,0,2.603,0.868,4.339c5.207,15.62,20.827,26.902,39.051,26.902h13.885v30.792
				c-7.011-3.526-15.137-5.798-22.563-7.362l-25.548-5.589l-6.56-6.561c-3.471-3.471-8.678-3.471-12.149,0s-3.471,8.678,0,12.149
				l6.653,6.653l6.364,25.455c0,1.736,0,2.603,0.868,4.339c5.207,15.62,20.827,26.902,39.051,26.902h13.885v164.881
				c0,5.207,3.471,8.678,8.678,8.678s8.678-3.471,8.678-8.678V337.441h13.885c18.224,0,33.844-11.281,39.919-26.902
				c0-1.736,0.868-2.603,0.868-4.339l5.589-25.548l6.561-6.56c3.471-3.471,3.471-8.678,0-12.149c-3.471-3.471-8.678-3.471-12.149,0
				l-6.56,6.56l-25.548,5.589c-7.426,1.563-15.552,3.835-22.563,7.362v-30.792h13.885c18.224,0,33.844-11.281,39.919-26.902
				c0-1.736,0.868-2.603,0.868-4.339l5.589-25.548l6.561-6.56c3.471-3.471,3.471-8.678,0-12.149c-3.471-3.471-8.678-3.471-12.149,0
				l-6.56,6.56l-25.548,5.589c-7.426,1.563-15.552,3.835-22.563,7.362v-30.792H104.003z M116.153,117.02l14.753-3.471l-3.471,14.753
				c0,0.868-0.868,1.736-0.868,2.603c-2.603,9.546-12.149,15.62-22.563,15.62H90.119v-16.488
				C91.854,124.831,102.268,119.624,116.153,117.02z M36.315,130.905c-0.868-0.868-0.868-1.736-0.868-2.603l-3.471-13.885
				l14.753,2.603c13.885,2.603,24.298,7.81,26.034,13.017v16.488H58.878C48.464,146.525,38.919,139.583,36.315,130.905z
				 M36.315,217.685c-0.868-0.868-0.868-1.736-0.868-2.603l-3.471-13.885l14.753,2.603c13.885,2.603,24.298,7.81,26.034,13.017
				v16.488H58.878C48.464,233.305,38.919,226.363,36.315,217.685z M36.315,304.464c-0.868-0.868-0.868-1.736-0.868-2.603
				l-3.471-13.885l14.753,2.603c13.885,2.603,24.298,7.81,26.034,13.017v16.488H58.878
				C48.464,320.085,38.919,313.142,36.315,304.464z M116.153,290.58l14.753-3.471l-3.471,14.753c0,0.868-0.868,1.736-0.868,2.603
				c-2.603,9.546-12.149,15.62-22.563,15.62H90.119v-16.488C91.854,298.39,102.268,293.183,116.153,290.58z M116.153,203.8
				l14.753-3.471l-3.471,14.753c0,0.868-0.868,1.736-0.868,2.603c-2.603,9.546-12.149,15.62-22.563,15.62H90.119v-16.488
				C91.854,211.61,102.268,206.403,116.153,203.8z"/>
			<path d="M451.122,250.661c18.224,0,33.844-11.281,39.919-26.902c0-1.736,0.868-2.603,0.868-4.339l5.589-25.548l6.561-6.561
				c3.471-3.471,3.471-8.678,0-12.149c-3.471-3.471-8.678-3.471-12.149,0l-6.56,6.56l-25.548,5.589
				c-7.426,1.563-15.552,3.835-22.563,7.362v-30.792h13.885c18.224,0,33.844-11.281,39.919-26.902c0-1.736,0.868-2.603,0.868-4.339
				l5.589-25.548l6.561-6.561c3.471-3.471,3.471-8.678,0-12.149c-3.471-3.471-8.678-3.471-12.149,0l-6.56,6.561l-25.548,5.589
				c-7.426,1.563-15.552,3.835-22.563,7.362v-39.47c0-5.207-3.471-8.678-8.678-8.678s-8.678,3.471-8.678,8.678v39.47
				c-7.011-3.526-15.137-5.798-22.563-7.362l-25.548-5.589l-6.56-6.561c-3.471-3.471-8.678-3.471-12.149,0s-3.471,8.678,0,12.149
				l6.653,6.653l6.364,25.455c0,1.736,0,2.603,0.868,4.339c5.207,15.62,20.827,26.902,39.051,26.902h13.885v30.792
				c-7.011-3.526-15.137-5.798-22.563-7.362l-25.548-5.589l-6.56-6.561c-3.471-3.471-8.678-3.471-12.149,0s-3.471,8.678,0,12.149
				l6.653,6.653l6.364,25.455c0,1.736,0,2.603,0.868,4.339c5.207,15.62,20.827,26.902,39.051,26.902h13.885v30.792
				c-7.011-3.526-15.137-5.798-22.563-7.362l-25.548-5.589l-6.56-6.561c-3.471-3.471-8.678-3.471-12.149,0s-3.471,8.678,0,12.149
				l6.653,6.653l6.364,25.455c0,1.736,0,2.603,0.868,4.339c5.207,15.62,20.827,26.902,39.051,26.902h13.885v164.881
				c0,5.207,3.471,8.678,8.678,8.678s8.678-3.471,8.678-8.678V337.441h13.885c18.224,0,33.844-11.281,39.919-26.902
				c0-1.736,0.868-2.603,0.868-4.339l5.589-25.548l6.561-6.561c3.471-3.471,3.471-8.678,0-12.149c-3.471-3.471-8.678-3.471-12.149,0
				l-6.56,6.56l-25.548,5.589c-7.426,1.563-15.552,3.835-22.563,7.362v-30.792H451.122z M463.271,203.8l14.753-3.471l-3.471,14.753
				c0,0.868-0.868,1.736-0.868,2.603c-2.603,9.546-12.149,15.62-22.563,15.62h-13.885v-16.488
				C438.973,211.61,449.386,206.403,463.271,203.8z M463.271,117.02l14.753-3.471l-3.471,14.753c0,0.868-0.868,1.736-0.868,2.603
				c-2.603,9.546-12.149,15.62-22.563,15.62h-13.885v-16.488C438.973,124.831,449.386,119.624,463.271,117.02z M405.997,146.525
				c-10.414,0-19.959-6.942-22.563-15.62c-0.868-0.868-0.868-1.736-0.868-2.603l-3.471-13.885l14.753,2.603
				c13.885,2.603,24.298,7.81,26.034,13.017v16.488H405.997z M405.997,233.305c-10.414,0-19.959-6.942-22.563-15.62
				c-0.868-0.868-0.868-1.736-0.868-2.603l-3.471-13.885l14.753,2.603c13.885,2.603,24.298,7.81,26.034,13.017v16.488H405.997z
				 M405.997,320.085c-10.414,0-19.959-6.942-22.563-15.62c-0.868-0.868-0.868-1.736-0.868-2.603l-3.471-13.885l14.753,2.603
				c13.885,2.603,24.298,7.81,26.034,13.017v16.488H405.997z M463.271,290.58l14.753-3.471l-3.471,14.753
				c0,0.868-0.868,1.736-0.868,2.603c-2.603,9.546-12.149,15.62-22.563,15.62h-13.885v-16.488
				C438.973,298.39,449.386,293.183,463.271,290.58z"/>
			<path d="M277.563,100.532c25.166-3.471,48.597-27.77,52.068-52.068l3.141-19.629l6.405-6.405c3.471-3.471,3.471-8.678,0-12.149
				s-8.678-3.471-12.149,0l-6.275,6.275l-21.495,1.535c-12.698,1.814-25.628,9.322-35.58,19.54V7.678C263.678,2.471,260.207-1,255-1
				c-5.207,0-8.678,3.471-8.678,8.678v29.736c-9.907-10.106-22.939-17.521-36.447-19.322l-20.619-1.527l-6.283-6.283
				c-3.471-3.471-8.678-3.471-12.149,0s-3.471,8.678,0,12.149l6.323,6.323l2.355,18.844c3.471,25.166,27.769,48.597,52.068,52.068
				l14.753,2.36v32.605c-10.005-10.562-23.411-18.359-37.315-20.213l-18.744-1.388l-7.289-7.289c-3.471-3.471-8.678-3.471-12.149,0
				c-3.471,3.471-3.471,8.678,0,12.149l6.323,6.323l2.355,18.844c3.471,25.166,27.769,48.597,52.068,52.068l14.753,2.36v32.605
				c-10.005-10.562-23.411-18.359-37.315-20.213l-18.744-1.388l-7.289-7.289c-3.471-3.471-8.678-3.471-12.149,0
				c-3.471,3.471-3.471,8.678,0,12.149l6.323,6.323l2.355,18.844c3.471,25.166,27.769,48.597,52.068,52.068l14.753,2.36v209.382
				c0,5.207,3.471,8.678,8.678,8.678c5.207,0,8.678-3.471,8.678-8.678V292.843l13.017-2.264
				c25.166-3.471,48.597-27.77,52.068-52.068l2.81-17.563l7.604-7.604c3.471-3.471,3.471-8.678,0-12.149
				c-3.471-3.471-8.678-3.471-12.149,0l-6.275,6.275l-21.495,1.535c-12.698,1.814-25.628,9.322-35.58,19.54v-31.161l13.017-2.264
				c25.166-3.471,48.597-27.769,52.068-52.068l2.81-17.563l7.604-7.604c3.471-3.471,3.471-8.678,0-12.149
				c-3.471-3.471-8.678-3.471-12.149,0l-6.275,6.275l-21.495,1.535c-12.698,1.814-25.628,9.322-35.58,19.54v-30.821L277.563,100.532
				z M300.993,35.447l13.017-0.868l-1.736,11.281c-2.603,17.356-19.959,34.712-37.315,37.315l-11.281,1.736V71.895
				C266.281,55.407,284.505,37.183,300.993,35.447z M197.725,45.861L195.99,34.58l12.149,0.868
				c17.356,2.603,35.58,19.959,38.183,36.447v12.149l-11.281-0.868C217.685,80.573,200.329,63.217,197.725,45.861z M197.725,141.319
				l-1.736-11.281l12.149,0.868c17.356,2.603,35.58,19.959,38.183,36.447v13.017l-11.281-1.736
				C217.685,176.031,200.329,158.675,197.725,141.319z M197.725,236.776l-1.736-11.281l12.149,0.868
				c17.356,2.603,35.58,19.959,38.183,36.447v13.017l-11.281-1.736C217.685,271.488,200.329,254.132,197.725,236.776z
				 M300.993,226.363l13.017-0.868l-1.736,11.281c-2.603,17.356-19.959,34.712-37.315,37.315l-11.281,1.736V262.81
				C266.281,246.322,284.505,228.098,300.993,226.363z M300.993,130.905l13.017-0.868l-1.736,11.281
				c-2.603,17.356-19.959,34.712-37.315,37.315l-11.281,1.736v-13.017C266.281,150.864,284.505,132.641,300.993,130.905z"/>
		</g>
	</g>
</g>
</svg>