<?xml version="1.0" encoding="iso-8859-1"?>
<!-- Uploaded to: SVG Repo, www.svgrepo.com, Generator: SVG Repo Mixer Tools -->
<svg fill="#000000" height="800px" width="800px" version="1.1" id="Layer_1" xmlns="http://www.w3.org/2000/svg" xmlns:xlink="http://www.w3.org/1999/xlink" 
	 viewBox="0 0 512 512" xml:space="preserve">
<g>
	<g>
		<path d="M436.916,80.671c-2.973-3.331-7.227-5.236-11.692-5.236H257.507L186.661,4.59C183.722,1.652,179.737,0,175.581,0H86.776
			c-8.655,0-15.671,7.017-15.671,15.671c0,8.655,7.017,15.671,15.671,15.671h82.314l44.093,44.092h-53.089
			c-4.465,0-8.719,1.905-11.692,5.236c-2.973,3.332-4.385,7.773-3.878,12.21c6.768,59.382,13.658,132.047,20.323,202.317
			c6.677,70.415,13.583,143.227,20.383,202.904C186.132,506.02,192.832,512,200.8,512h183.718c7.968,0,14.668-5.98,15.57-13.896
			c6.803-59.69,13.71-132.521,20.39-202.953c6.662-70.254,13.552-142.9,20.318-202.269
			C441.301,88.444,439.889,84.003,436.916,80.671z M389.275,292.19c-6.155,64.894-12.503,131.83-18.768,188.466H214.811
			c-6.264-56.622-12.609-123.538-18.762-188.417c-6.04-63.69-12.266-129.343-18.433-185.462h230.086
			C401.537,162.884,395.312,228.516,389.275,292.19z"/>
	</g>
</g>
</svg>