<?xml version="1.0" encoding="utf-8"?>

<!DOCTYPE svg PUBLIC "-//W3C//DTD SVG 1.1//EN" "http://www.w3.org/Graphics/SVG/1.1/DTD/svg11.dtd">
<!-- Uploaded to: SVG Repo, www.svgrepo.com, Generator: SVG Repo Mixer Tools -->
<svg height="800px" width="800px" version="1.1" id="_x32_" xmlns="http://www.w3.org/2000/svg" xmlns:xlink="http://www.w3.org/1999/xlink" 
	 viewBox="0 0 512 512"  xml:space="preserve">
<style type="text/css">
	.st0{fill:#000000;}
</style>
<g>
	<polygon class="st0" points="359.418,105.112 291.604,105.112 281.433,0 230.567,0 220.396,105.112 152.582,105.112 
		152.582,166.149 359.418,166.149 	"/>
	<path class="st0" d="M387.344,459.045l-27.926-272.552H152.582l-27.926,272.552c-1.388,13.522,3.022,27.008,12.134,37.104
		c9.112,10.09,22.075,15.851,35.672,15.851h167.075c13.597,0,26.56-5.761,35.672-15.851
		C384.32,486.052,388.731,472.567,387.344,459.045z M171.261,303.627l8.873-86.619h36.246
		C204.918,238.94,188,271.365,171.261,303.627z"/>
</g>
</svg>