<?xml version="1.0" encoding="iso-8859-1"?>
<!-- Uploaded to: SVG Repo, www.svgrepo.com, Generator: SVG Repo Mixer Tools -->
<svg fill="#000000" height="800px" width="800px" version="1.1" id="Layer_1" xmlns="http://www.w3.org/2000/svg" xmlns:xlink="http://www.w3.org/1999/xlink" 
	 viewBox="0 0 512 512" xml:space="preserve">
<g>
	<g>
		<path d="M342.379,115.985c-82.601,0-125.149,60.775-159.457,131.349c-0.321,0.754-0.679,1.487-1.067,2.202
			c-7.544,15.637-14.703,31.732-21.816,47.725c-11.328,25.463-22.215,49.943-34.289,71.452
			c25.835-7.679,51.173-13.791,73.122-13.791c43.475,0,72.292,6.712,97.717,12.634c22.849,5.324,44.428,10.35,75.743,10.35
			c32.765,0,139.667-9.017,139.667-125.04C512,170.986,424.295,115.985,342.379,115.985z M328.623,301.595
			c-4.594,4.612-10.951,7.248-17.461,7.248c-6.505,0-12.881-2.637-17.476-7.248c-4.597-4.596-7.233-10.954-7.233-17.461
			s2.636-12.883,7.233-17.477c4.594-4.596,10.971-7.231,17.476-7.231c6.508,0,12.867,2.636,17.461,7.231
			c4.614,4.594,7.248,10.971,7.248,17.477C335.871,290.64,333.237,297,328.623,301.595z M410.969,235.671
			c-4.611,4.596-10.971,7.248-17.475,7.248c-6.505,0-12.881-2.652-17.476-7.248c-4.597-4.594-7.233-10.954-7.233-17.461
			c0-6.507,2.636-12.881,7.233-17.477c4.594-4.596,10.971-7.231,17.476-7.231s12.867,2.636,17.475,7.231
			c4.597,4.596,7.233,10.971,7.233,17.477C418.202,224.703,415.566,231.077,410.969,235.671z"/>
	</g>
</g>
<g>
	<g>
		<path d="M0,374.364c0,15.581,2.349,18.823,2.448,18.953c0.058,0.028,3.581,2.698,20.905,2.698c0.026,0,0.038-0.002,0.064,0
			c38.636-0.061,63.119-55.107,91.469-118.838c1.698-3.82,3.416-7.686,5.161-11.58C22.028,282.145,0,357.982,0,374.364z"/>
	</g>
</g>
</svg>