<?xml version="1.0" encoding="iso-8859-1"?>
<!-- Uploaded to: SVG Repo, www.svgrepo.com, Generator: SVG Repo Mixer Tools -->
<svg fill="#000000" height="800px" width="800px" version="1.1" id="Layer_1" xmlns="http://www.w3.org/2000/svg" xmlns:xlink="http://www.w3.org/1999/xlink" 
	 viewBox="0 0 512 512" xml:space="preserve">
<g>
	<g>
		<path d="M355.439,171.918v-30.164c0-27.5-21.098-50.156-47.956-52.654V14.106c0-4.631-2.274-8.966-6.083-11.602
			c-3.81-2.633-8.67-3.231-13.002-1.595l-74.755,28.209c-5.492,2.073-9.126,7.327-9.126,13.196v46.785
			c-26.858,2.498-47.956,25.154-47.956,52.654v30.164c-17.761,7.343-30.036,24.878-30.036,44.88v41.32v239.779
			c0,7.789,6.316,14.105,14.105,14.105h230.738c7.789,0,14.105-6.316,14.105-14.105V258.117v-41.32
			C385.475,196.794,373.2,179.26,355.439,171.918z M232.729,52.069l46.545-17.565v54.356h-46.545V52.069z M154.734,216.797h0.003
			c0-10.203,7.618-18.873,17.721-20.167c7.04-0.901,12.313-6.893,12.313-13.99v-40.887c0-13.61,11.074-24.683,24.683-24.683h9.168
			h74.755h9.168c13.61,0,24.683,11.074,24.683,24.683v40.887c0,7.097,5.274,13.089,12.313,13.99
			c10.103,1.293,17.721,9.962,17.721,20.167v27.215H154.734V216.797z M357.266,483.791L357.266,483.791H154.737V341.334h117.249
			c7.789,0,14.105-6.316,14.105-14.105c0-7.789-6.316-14.105-14.105-14.105H154.737v-40.903h202.529V483.791z"/>
	</g>
</g>
<g>
	<g>
		<path d="M328.131,324.476c-0.182-0.901-0.451-1.793-0.804-2.652c-0.353-0.848-0.79-1.664-1.298-2.426
			c-0.521-0.777-1.114-1.497-1.763-2.145c-3.271-3.272-8.138-4.781-12.722-3.849c-0.903,0.168-1.793,0.45-2.638,0.803
			c-0.86,0.353-1.678,0.791-2.439,1.298c-0.777,0.508-1.497,1.1-2.145,1.749s-1.241,1.368-1.749,2.145
			c-0.506,0.762-0.945,1.578-1.298,2.426c-0.353,0.859-0.619,1.749-0.803,2.652c-0.185,0.903-0.282,1.834-0.282,2.75
			c0,3.71,1.508,7.349,4.133,9.971c0.649,0.652,1.368,1.245,2.145,1.752c0.76,0.508,1.578,0.945,2.439,1.298
			c0.846,0.353,1.735,0.621,2.638,0.804s1.834,0.282,2.75,0.282c3.724,0,7.349-1.509,9.971-4.134
			c0.649-0.649,1.243-1.368,1.763-2.144c0.508-0.762,0.945-1.58,1.298-2.426c0.353-0.86,0.621-1.749,0.804-2.652
			c0.183-0.904,0.268-1.835,0.268-2.75C328.399,326.31,328.313,325.378,328.131,324.476z"/>
	</g>
</g>
</svg>