<?xml version="1.0" encoding="iso-8859-1"?>
<!-- Uploaded to: SVG Repo, www.svgrepo.com, Generator: SVG Repo Mixer Tools -->
<svg fill="#000000" height="800px" width="800px" version="1.1" id="Layer_1" xmlns="http://www.w3.org/2000/svg" xmlns:xlink="http://www.w3.org/1999/xlink" 
	 viewBox="0 0 512 512" xml:space="preserve">
<g>
	<g>
		<path d="M511.879,187.305c-1.188-10.685-10.807-18.385-21.499-17.198l-43.397,4.823l37.41-37.411
			c7.601-7.603,7.601-19.928,0-27.531c-7.603-7.601-19.928-7.601-27.531,0l-37.409,37.41l4.82-43.396
			c1.188-10.686-6.513-20.311-17.199-21.497c-10.685-1.181-20.311,6.514-21.499,17.199l-6.876,61.896
			c-12.201-7.22-25.599-11.085-39.157-11.085c-2.915,0-5.795,0.18-8.637,0.515c-24.32-37.863-66.923-58.157-124.372-59.046
			l9.792-25.196c3.895-10.022-1.072-21.303-11.094-25.197c-10.019-3.894-21.303,1.072-25.198,11.094l-15.468,39.797
			c-4.287-0.361-8.575-0.545-12.838-0.545C53.886,91.938,0,145.676,0,243.255c0,46.36,17.789,90.2,50.09,123.442
			c24.837,25.561,56.174,42.723,90.366,49.903l-15.137,25.823c-4.48,7.643-3.236,17.347,3.029,23.61
			c3.751,3.752,8.734,5.703,13.771,5.703c3.374,0,6.772-0.876,9.839-2.674l250.766-146.998
			c22.754-13.337,37.536-34.498,40.559-58.056c2.117-16.503-1.668-33.317-10.523-48.324l61.921-6.881
			C505.367,207.616,513.067,197.992,511.879,187.305z M38.935,243.255c0-64.125,26.543-100.294,80.889-109.813l-7.112,5.482
			c-8.516,6.563-10.098,18.787-3.535,27.304c3.835,4.976,9.601,7.585,15.434,7.585c4.148,0,8.331-1.321,11.87-4.049l21.211-16.348
			v20.863c0,10.751,8.716,19.468,19.468,19.468s19.468-8.716,19.468-19.468v-20.863l21.211,16.348
			c3.54,2.728,7.721,4.049,11.87,4.049c5.831,0,11.599-2.609,15.434-7.585c6.563-8.516,4.98-20.739-3.535-27.304l-7.008-5.402
			c26.228,4.707,46.126,15.697,59.488,32.863c-8.4,6.577-15.782,15.073-21.761,25.274L161.558,380.608
			C91.944,372.913,38.935,314.615,38.935,243.255z M404.664,259.053c-1.054,8.215-5.182,15.818-11.867,22.149l-42.133-42.134
			c-7.603-7.601-19.928-7.603-27.531-0.001c-7.603,7.603-7.603,19.928-0.001,27.531l35.929,35.931l-162.412,95.207l54.737-93.374
			l6.898,6.898c3.801,3.801,8.784,5.703,13.766,5.703c4.981,0,9.965-1.901,13.766-5.701c7.603-7.603,7.603-19.928,0-27.531
			l-14.08-14.081l34.176-58.299c8.158-13.915,20.416-21.897,33.633-21.897c10.431,0,20.706,4.762,29.715,13.77l21.901,21.901
			C401.366,235.328,406.162,247.378,404.664,259.053z"/>
	</g>
</g>
</svg>