<!DOCTYPE svg PUBLIC "-//W3C//DTD SVG 1.1//EN" "http://www.w3.org/Graphics/SVG/1.1/DTD/svg11.dtd">
<!-- Uploaded to: SVG Repo, www.svgrepo.com, Transformed by: SVG Repo Mixer Tools -->
<svg width="800px" height="800px" viewBox="-2 -2 24.00 24.00" version="1.1" xmlns="http://www.w3.org/2000/svg" fill="#f5f5f5">
<g id="SVGRepo_bgCarrier" stroke-width="0"/>
<g id="SVGRepo_tracerCarrier" stroke-linecap="round" stroke-linejoin="round" stroke="black" stroke-width="0.36"/>
<g id="SVGRepo_iconCarrier"> <g id="layer1"> <path d="M 4 2.5 L 3 3.5 L 3 8 L 7.5 8 L 8.5 7 L 4.6601562 7 L 5.4628906 6.0722656 L 5.7695312 5.7441406 L 6.0996094 5.4414062 L 6.4492188 5.1621094 L 6.8203125 4.9101562 L 7.2089844 4.6875 L 7.6152344 4.4941406 L 8.0332031 4.3300781 L 8.4609375 4.2011719 L 8.8984375 4.1015625 L 9.3417969 4.0351562 L 9.7890625 4.0039062 L 10.238281 4.0058594 L 10.685547 4.0390625 L 11.128906 4.1054688 L 11.564453 4.2070312 L 11.994141 4.3398438 L 12.410156 4.5058594 L 12.814453 4.7011719 L 13.201172 4.9257812 L 13.572266 5.1777344 L 13.921875 5.4589844 L 14.25 5.7636719 L 14.554688 6.09375 L 14.833984 6.4453125 L 15.083984 6.8164062 L 15.310547 7.2050781 L 15.501953 7.609375 L 15.666016 8.0273438 L 15.796875 8.4550781 L 15.896484 8.8925781 L 15.962891 9.3359375 L 15.994141 9.7851562 L 15.994141 10 L 17 10 L 17 9.9902344 L 16.982422 9.5058594 L 16.931641 9.0214844 L 16.847656 8.5449219 L 16.728516 8.0742188 L 16.580078 7.6113281 L 16.398438 7.1621094 L 16.185547 6.7265625 L 15.945312 6.3046875 L 15.675781 5.9023438 L 15.376953 5.5175781 L 15.054688 5.15625 L 14.707031 4.8183594 L 14.335938 4.5058594 L 13.945312 4.2167969 L 13.535156 3.9570312 L 13.109375 3.7285156 L 12.666016 3.5273438 L 12.210938 3.3574219 L 11.746094 3.2207031 L 11.271484 3.1152344 L 10.792969 3.0449219 L 10.306641 3.0058594 L 9.8222656 3 L 9.3378906 3.0292969 L 8.8574219 3.0917969 L 8.3808594 3.1894531 L 7.9140625 3.3183594 L 7.4550781 3.4785156 L 7.0097656 3.6699219 L 6.578125 3.8925781 L 6.1640625 4.1445312 L 5.7675781 4.4238281 L 5.390625 4.7304688 L 5.0371094 5.0605469 L 4.7070312 5.4179688 L 4 6.234375 L 4 2.5 z M 3 10 L 3 10.007812 L 3.0175781 10.492188 L 3.0683594 10.976562 L 3.1523438 11.453125 L 3.2714844 11.923828 L 3.4199219 12.386719 L 3.6015625 12.835938 L 3.8144531 13.271484 L 4.0546875 13.693359 L 4.3242188 14.095703 L 4.6230469 14.480469 L 4.9453125 14.841797 L 5.2929688 15.179688 L 5.6640625 15.492188 L 6.0546875 15.78125 L 6.4648438 16.041016 L 6.890625 16.269531 L 7.3339844 16.470703 L 7.7890625 16.640625 L 8.2539062 16.777344 L 8.7285156 16.882812 L 9.2070312 16.953125 L 9.6933594 16.992188 L 10.177734 16.998047 L 10.662109 16.96875 L 11.142578 16.90625 L 11.619141 16.808594 L 12.085938 16.679688 L 12.544922 16.519531 L 12.990234 16.328125 L 13.421875 16.105469 L 13.835938 15.853516 L 14.232422 15.574219 L 14.609375 15.267578 L 14.962891 14.9375 L 15.292969 14.580078 L 16 13.763672 L 16 17.498047 L 17 16.498047 L 17 11.998047 L 12.5 11.998047 L 11.5 12.998047 L 15.339844 12.998047 L 14.537109 13.925781 L 14.230469 14.253906 L 13.900391 14.556641 L 13.550781 14.835938 L 13.179688 15.087891 L 12.791016 15.310547 L 12.384766 15.503906 L 11.966797 15.667969 L 11.539062 15.796875 L 11.101562 15.896484 L 10.658203 15.962891 L 10.210938 15.994141 L 9.7617188 15.992188 L 9.3144531 15.958984 L 8.8710938 15.892578 L 8.4355469 15.791016 L 8.0058594 15.658203 L 7.5898438 15.492188 L 7.1855469 15.296875 L 6.7988281 15.072266 L 6.4277344 14.820312 L 6.078125 14.539062 L 5.75 14.234375 L 5.4453125 13.904297 L 5.1660156 13.552734 L 4.9160156 13.181641 L 4.6894531 12.792969 L 4.4980469 12.388672 L 4.3339844 11.970703 L 4.203125 11.542969 L 4.1035156 11.105469 L 4.0371094 10.662109 L 4.0058594 10.212891 L 4.0058594 10 L 3 10 z " style="fill:#f5f5f5; fill-opacity:1; stroke:none; stroke-width:0px;"/> </g> </g>
</svg>